<?xml version="1.0" encoding="UTF-8"?>
<svg version="1.1" viewBox="0 0 1840 1840" width="460" height="460" xmlns="http://www.w3.org/2000/svg">
<path transform="translate(964,49)" d="m0 0 4 4 6 16 5 34 1 35v19l-1 26-3 19-6 43-7 30-8 29-13 48-17 59-12 41-8 28-5 30-2 16-2 9-2 16-1 2-1 22v23l1 14 6 31 3 17 4 18 15 36 8 16 3 5 5 1 85 6 33 4 72 12 27 6 81 21 33 11 43 16 16 7 28 15 14 8 9 7 12 11 8 7 13 12 10 11 9 14 9 21 1 5v28l-4 11-13 26-6 8-29 29-19 12-23 14-12 7-41 17-28 11-49 14-33 9-40 7-74 12-54 5-42 3-22 1h-76l-33-1-69-5-36-4-74-12-28-6-63-16-45-16-31-12-21-11-21-12-19-11-12-9-12-11-6-5 2 22 9 73 7 34 12 52 8 26 15 45 9 21 16 33 13 28 9 16 22 33 13 19 11 13 9 10 7 8 9 8 17 13 12 10 16 12 14 8 32 17 33 17 47 16 33 11 25 5 62 10 21 2h117l31-4 43-7 20-6 48-17 17-8 22-12 29-15 10-7 16-13 17-14 10-9 9-10 11-12 7-8 9-12 28-44 12-23 8-18 7-14 8-18 16-47 27-81 12-25 9-18 7 1 1 1v15l-6 55-6 39-10 60v3l44-15 40-13 17-7 26-13 19-9 17-10 13-11 14-11 13-11 13-18 14-21 11-32 1-8-4-36-11-23-6-10-9-10-17-17-10-7-28-16-22-12-30-10-28-8-26-6-3-2 2-4 10-5 26-6h45l23 5 23 6 16 8 31 16 16 10 13 13 6 5 6 7 5 5 6 7 12 25 7 17 3 13 1 8v36l-3 16-8 32-7 16-16 32-10 14-12 15-9 11-6 7h-2v2h-2l-2 4h-2l-2 4h-2l-2 4h-2v2h-2v2h-2v2h-2v2l-5 4-1 2h-2v2h-2l-2 4-10 10h-2l-2 4-17 13-19 13-18 13-22 15-27 15-23 13-15 8-42 18-23 9-45 17-8 4-17 14-14 11-14 12-14 11-13 11-14 11-18 11-20 12-22 13-33 16-28 13-20 7-41 12-25 6-56 9-15 1h-116l-26-2-58-9-25-6-34-10-9-4-22-11-22-12-22-11-15-9-14-11-18-14-16-13-14-11-13-12-8-7-12-13-7-8-12-15-12-17-13-18-10-15-8-16-16-33-13-29-9-29-14-47-14-68-7-38-16-130-3-26v-69l6-17 7-16 12-13 7-8 11-12 10-7 25-14 21-12 29-14 31-14 25-8 47-14 26-6 75-15 40-5 67-7 45-3 41-2h14l-8-11-8-10-14-22-8-14-6-15-12-36-3-14v-112l5-25 3-13 7-32 16-49 34-102 15-49 13-43 5-25 9-54zm-141 715-76 6-31 4-58 10-24 5-57 16-30 10-41 18-19 9-23 15-14 9-5 4-9 11-13 14-6 10-8 20-1 4v14l6-2 23-13 13-8 16-8 16-7 30-12 22-9 15-5 64-16 37-9 49-8 62-9 31-3 19-1h184l31 2 73 8 29 5 60 13 21 5 46 15 22 8 11 6 20 11 13 10 13 11 5 5 6 9 2 8 1 7h4v-27l-5-12-13-26-9-10-12-11-14-12-13-8-23-12-22-12-15-6-78-26-25-6-64-12-47-6-30-3-44-3zm40 87-37 1-61 6-53 6-102 21-26 7-43 13-35 11-18 8-16 7-20 9-21 10-15 11-4 3 3 9 7 14 10 11 9 11 8 8 23 15 17 11 15 9 27 11 41 16 23 6 75 18 39 6 45 6 33 3 36 2h114l44-3 51-5 54-9 38-7 43-12 41-12 31-13 23-10 16-10 31-21 5-4 9-11 5-7-1-9-7-27-6-9-11-12-17-10-13-8-13-7-11-5-35-12-28-9-44-10-48-10-35-5-58-7-45-3-17-1-35-1z" fill="#B8863A"/>
<path transform="translate(314,1208)" d="m0 0 7 1 6 2-4 4-29 15-21 11-17 10-34 24-19 14-8 8-8 7-9 9-3 4h-2l-2 4h-2v2h-2l-2 4-12 20-9 14-5 13-6 25v29l9 27 7 17 18 20 15 16 11 12 7 7 16 11 12 9 11 8 14 10 14 9 21 11 15 9 23 12 29 13 34 15 37 12 27 8 32 10 31 8 63 14 30 5 78 11 52 5 40 3 20 1h203l42-3 91-8 34-5 114-19 56-13 65-16 30-10 24-9 29-10 58-29 19-11 10-6 17-10 11-8 13-10 17-14h2v-2l8-7 23-23 10-14 16-28 11-35 2-15 2-27 1-9-4-16-9-30-2-7 1-7 3-6 5 5 12 14 8 11 11 28 7 19 1 6v65l-2 9-13 40-4 8-16 21-10 14-12 13-22 22-20 15-19 13-12 9-13 8-23 12-26 13-22 12-19 8-15 6-26 9-24 9-15 6-23 7-112 28-25 5-87 15-31 4-73 7-38 3-54 2-73 2-43-1-67-3-59-6-78-9-25-4-95-19-24-6-81-23-24-8-27-10-33-12-27-12-39-19-22-11-19-9-20-12-15-10-11-7-10-8-30-23-10-8-8-8-2-1v-2l-4-2-7-7-7-8-9-12-11-16-9-14-8-20-3-10v-50l7-22 5-13 13-18 21-28 4-5 7-6 5-6 8-7 18-13 25-17 10-7 15-8 22-12 40-20 14-6z" fill="#B8863A"/>
<path transform="translate(811,832)" d="m0 0h184l31 2 73 8 29 5 60 13 21 5 46 15 22 8 11 6 20 11 13 10 13 11 5 5 6 8 2 4 1 6v18l-3 8-11 17-3 4h-3l-9-36-6-9-10-11-17-10-13-8-13-7-11-5-35-12-28-9-44-10-48-10-35-5-58-7-45-3-17-1-35-1h-41l-37 1-61 6-53 6-102 21-26 7-43 13-35 11-18 8-16 7-20 9-21 10-15 11h-4l-4-15v-4l24-13 13-8 18-10 19-8 30-12 22-9 15-5 64-16 37-9 49-8 62-9 31-3z" fill="#B8863A"/>
<path transform="translate(964,49)" d="m0 0 4 4 6 16 5 34 1 35v19l-1 26-3 19-6 43-7 30-8 29-13 48-17 59-12 41-8 28-5 30-2 16-2 9-2 16-1 2-1 22v23l1 14 6 31 3 17 4 18 15 36 8 16 6 10 5 9-1 4-5 1-5-5-12-13-5-5-10-12-10-15-12-19-7-15-13-38-4-18v-112l5-25 3-13 7-32 16-49 34-102 15-49 13-43 5-25 9-54z" fill="#B8863A"/>
<path transform="translate(781,880)" d="m0 0h67v3l-7 2-86 11-44 9-36 9-21 7-24 9-14 7-10 7-13 10-4 5 1 13 2 15 4 4 10 8 16 9 16 8 12 5 26 8 36 10 55 9 54 8 34 4v4l-67-1-55-6-39-5-28-6-68-16-12-5-46-23-9-8-6-9-1-3v-22l3-5 8-7 7-7 29-15 16-8 10-4 42-11 28-7 41-7 41-6z" fill="#B8863A"/>
<path transform="translate(1041,249)" d="m0 0 2 1 6 14 2 8 1 28v38l-2 19-7 26-10 38-8 23-9 24-11 30-12 32-6 26-6 28-1 18v20l2 16 10 32 4 12 9 17 10 15 4 7v2l-9-3-12-9-16-16-8-10-11-21-11-23-4-16v-66l8-29 8-28 16-40 11-27 26-65 10-26 6-25 6-32 1-37z" fill="#B8863A"/>
<path transform="translate(833,245)" d="m0 0 3 4 5 11 2 9 1 28v39l-2 17-13 51-8 24-9 24-11 30-8 21-5 15-13 54-2 9-1 22v14l1 13 8 30 4 12 10 18 11 18 2 6v8l-5-2-1-3-4-2-7-7-7-8-16-16-8-14-11-23-6-12-3-14v-63l15-56 5-13 8-19 12-29 11-26 12-30 15-38 7-28 6-32 1-41z" fill="#B8863A"/>
<path transform="translate(373,1221)" d="m0 0h8l5 2-1 3-20 12-22 14-12 8-11 9-14 11-10 9-7 9-10 16-6 9-11 24-1 3v56l9 21 10 23 7 11 9 11 11 14 12 14 10 11 5 7v2h-9l-14-8-19-13-16-13-14-12-8-9-8-11-13-19-7-11-6-14v-55l16-32 6-10 23-23 5-6 8-7 7-6 15-10 20-13 19-12 31-14z" fill="#B8863A"/>
<path transform="translate(846,920)" d="m0 0h38v3l-6 2-63 10-19 5-32 11-4 2-7 13 1 4 15 9 16 5 38 10 56 10v4h-27l-22-2-53-9-27-8-25-9-8-6-4-5 1-7 5-8 5-4 25-12 19-5 45-9z" fill="#B8863A"/>
<path transform="translate(852,876)" d="m0 0h43l1 3-22 1h-26v-3z" fill="#B8863A"/>
<path transform="translate(896,916)" d="m0 0h27l1 3-22 1h-13l-1-3z" fill="#B8863A"/>
<path transform="translate(884,1008)" d="m0 0h30l6 1-1 3-35-1z" fill="#B8863A"/>
<path transform="translate(868,1064)" d="m0 0h22l10 1-1 3-31-1z" fill="#B8863A"/>
<path transform="translate(337,1524)" d="m0 0 7 1v2h-8z" fill="#B8863A"/>
</svg>
